<svg xmlns="http://www.w3.org/2000/svg" width="362" height="160" viewBox="0 0 362 160">
  <g id="clouds" transform="translate(-5 -285)">
    <g id="cliud_group_8">
      <g id="Group_11" data-name="Group 11" transform="translate(229.129 435.287)">
        <rect id="Rectangle_1" data-name="Rectangle 1" width="49" height="6" transform="translate(2.871 -0.287)" fill="#d0fefe"/>
        <ellipse id="Ellipse_5" data-name="Ellipse 5" cx="3.5" cy="3" rx="3.5" ry="3" transform="translate(47.871 -0.287)" fill="#d0fefe"/>
        <circle id="Ellipse_6" data-name="Ellipse 6" cx="3" cy="3" r="3" transform="translate(-0.129 -0.287)" fill="#d0fefe"/>
      </g>
    </g>
    <g id="cloud_group_7">
      <g id="Group_82" data-name="Group 82" transform="translate(254.129 426.287)">
        <rect id="Rectangle_1-2" data-name="Rectangle 1" width="43" height="5" transform="translate(2.871 -0.287)" fill="#d0fefe"/>
        <ellipse id="Ellipse_5-2" data-name="Ellipse 5" cx="3" cy="2.5" rx="3" ry="2.5" transform="translate(41.871 -0.287)" fill="#d0fefe"/>
        <circle id="Ellipse_6-2" data-name="Ellipse 6" cx="2.5" cy="2.5" r="2.5" transform="translate(-0.129 -0.287)" fill="#d0fefe"/>
      </g>
    </g>
    <g id="cloud_group_6">
      <g id="Group_83" data-name="Group 83" transform="translate(231.129 340.287)">
        <rect id="Rectangle_1-3" data-name="Rectangle 1" width="53" height="7" transform="translate(2.871 -0.287)" fill="#d0fefe"/>
        <circle id="Ellipse_5-3" data-name="Ellipse 5" cx="3.5" cy="3.5" r="3.5" transform="translate(51.871 -0.287)" fill="#d0fefe"/>
        <ellipse id="Ellipse_6-3" data-name="Ellipse 6" cx="3" cy="3.5" rx="3" ry="3.5" transform="translate(-0.129 -0.287)" fill="#d0fefe"/>
      </g>
    </g>
    <g id="cloud_group_5">
      <g id="Group_14" data-name="Group 14" transform="translate(36.903 363.032)">
        <g id="Group_5" data-name="Group 5" transform="translate(0 8.18)">
          <rect id="Rectangle_1-4" data-name="Rectangle 1" width="123" height="15" transform="translate(8.097 -0.212)" fill="#d0fefe"/>
          <circle id="Ellipse_5-4" data-name="Ellipse 5" cx="7.5" cy="7.5" r="7.5" transform="translate(123.097 -0.212)" fill="#d0fefe"/>
          <ellipse id="Ellipse_6-4" data-name="Ellipse 6" cx="8" cy="7.5" rx="8" ry="7.5" transform="translate(0.097 -0.212)" fill="#d0fefe"/>
        </g>
        <g id="Group_6" data-name="Group 6" transform="translate(17.723 0)">
          <rect id="Rectangle_1-5" data-name="Rectangle 1" width="93" height="16" transform="translate(6.374 -0.032)" fill="#d0fefe"/>
          <ellipse id="Ellipse_5-5" data-name="Ellipse 5" cx="6" cy="8" rx="6" ry="8" transform="translate(94.374 -0.032)" fill="#d0fefe"/>
          <ellipse id="Ellipse_6-5" data-name="Ellipse 6" cx="6" cy="8" rx="6" ry="8" transform="translate(0.374 -0.032)" fill="#d0fefe"/>
        </g>
      </g>
    </g>
    <g id="cloud_group_4">
      <g id="Group_12" data-name="Group 12" transform="translate(55.989 412.111)">
        <g id="Group_7" data-name="Group 7" transform="translate(0 16.36)">
          <rect id="Rectangle_1-6" data-name="Rectangle 1" width="134" height="17" transform="translate(10.011 -0.47)" fill="#d0fefe"/>
          <ellipse id="Ellipse_5-6" data-name="Ellipse 5" cx="9" cy="8.5" rx="9" ry="8.5" transform="translate(136.011 -0.47)" fill="#d0fefe"/>
          <ellipse id="Ellipse_6-6" data-name="Ellipse 6" cx="9" cy="8.5" rx="9" ry="8.5" transform="translate(0.011 -0.47)" fill="#d0fefe"/>
        </g>
        <g id="Group_8" data-name="Group 8" transform="translate(23.176 8.18)">
          <rect id="Rectangle_1-7" data-name="Rectangle 1" width="106" height="17" transform="translate(6.835 -0.291)" fill="#d0fefe"/>
          <ellipse id="Ellipse_5-7" data-name="Ellipse 5" cx="7" cy="8.5" rx="7" ry="8.5" transform="translate(106.835 -0.291)" fill="#d0fefe"/>
          <ellipse id="Ellipse_6-7" data-name="Ellipse 6" cx="7" cy="8.5" rx="7" ry="8.5" transform="translate(-0.165 -0.291)" fill="#d0fefe"/>
        </g>
        <g id="Group_9" data-name="Group 9" transform="translate(35.446 0)">
          <rect id="Rectangle_1-8" data-name="Rectangle 1" width="89" height="16" transform="translate(5.565 -0.111)" fill="#d0fefe"/>
          <ellipse id="Ellipse_5-8" data-name="Ellipse 5" cx="6" cy="8" rx="6" ry="8" transform="translate(87.565 -0.111)" fill="#d0fefe"/>
          <ellipse id="Ellipse_6-8" data-name="Ellipse 6" cx="5.5" cy="8" rx="5.5" ry="8" transform="translate(-0.435 -0.111)" fill="#d0fefe"/>
        </g>
      </g>
    </g>
    <g id="cloud_group_3">
      <g id="Group_19" data-name="Group 19" transform="translate(5.453 305.773)">
        <g id="Group_15" data-name="Group 15" transform="translate(-0.453 31.227)">
          <rect id="Rectangle_1-9" data-name="Rectangle 1" width="156" height="11" transform="translate(11)" fill="#d0fefe"/>
          <ellipse id="Ellipse_5-9" data-name="Ellipse 5" cx="10.5" cy="5.5" rx="10.5" ry="5.5" transform="translate(157)" fill="#d0fefe"/>
          <ellipse id="Ellipse_6-9" data-name="Ellipse 6" cx="10" cy="5.5" rx="10" ry="5.5" fill="#d0fefe"/>
        </g>
        <g id="Group_18" data-name="Group 18" transform="translate(58.17 4.85)">
          <path id="Path_4" data-name="Path 4" d="M0,5.5Z" transform="translate(0 -4.623)" fill="#d0fefe"/>
        </g>
        <g id="Group_79" data-name="Group 79" transform="translate(13.547 21.356)">
          <rect id="Rectangle_1-10" data-name="Rectangle 1" width="132" height="11" transform="translate(11 -0.129)" fill="#d0fefe"/>
          <ellipse id="Ellipse_5-10" data-name="Ellipse 5" cx="10.5" cy="5.5" rx="10.5" ry="5.5" transform="translate(133 -0.129)" fill="#d0fefe"/>
          <ellipse id="Ellipse_6-10" data-name="Ellipse 6" cx="10" cy="5.5" rx="10" ry="5.5" transform="translate(0 -0.129)" fill="#d0fefe"/>
        </g>
        <g id="Group_80" data-name="Group 80" transform="translate(18.547 12.719)">
          <rect id="Rectangle_1-11" data-name="Rectangle 1" width="116" height="11" transform="translate(11 -0.492)" fill="#d0fefe"/>
          <ellipse id="Ellipse_5-11" data-name="Ellipse 5" cx="10.5" cy="5.5" rx="10.5" ry="5.5" transform="translate(117 -0.492)" fill="#d0fefe"/>
          <ellipse id="Ellipse_6-11" data-name="Ellipse 6" cx="10" cy="5.5" rx="10" ry="5.5" transform="translate(0 -0.492)" fill="#d0fefe"/>
        </g>
        <g id="Group_81" data-name="Group 81" transform="translate(32.285 5.227)">
          <rect id="Rectangle_1-12" data-name="Rectangle 1" width="80" height="11" transform="translate(11.262)" fill="#d0fefe"/>
          <ellipse id="Ellipse_5-12" data-name="Ellipse 5" cx="10.5" cy="5.5" rx="10.5" ry="5.5" transform="translate(81.262)" fill="#d0fefe"/>
          <ellipse id="Ellipse_6-12" data-name="Ellipse 6" cx="10" cy="5.5" rx="10" ry="5.5" transform="translate(0.262)" fill="#d0fefe"/>
        </g>
      </g>
    </g>
    <g id="cloud_group_2">
      <g id="Group_13" data-name="Group 13" transform="translate(192.32 368.485)">
        <g id="Group_1" data-name="Group 1" transform="translate(0 23.176)">
          <rect id="Rectangle_1-13" data-name="Rectangle 1" width="161" height="13" transform="translate(5.68 0.339)" fill="#d0fefe"/>
          <circle id="Ellipse_5-13" data-name="Ellipse 5" cx="6.5" cy="6.5" r="6.5" transform="translate(159.68 0.339)" fill="#d0fefe"/>
          <circle id="Ellipse_6-13" data-name="Ellipse 6" cx="6.5" cy="6.5" r="6.5" transform="translate(-0.32 0.339)" fill="#d0fefe"/>
        </g>
        <g id="Group_2" data-name="Group 2" transform="translate(16.36 16.36)">
          <rect id="Rectangle_1-14" data-name="Rectangle 1" width="138" height="13" transform="translate(5.321 0.155)" fill="#d0fefe"/>
          <ellipse id="Ellipse_5-14" data-name="Ellipse 5" cx="5.5" cy="6.5" rx="5.5" ry="6.5" transform="translate(137.321 0.155)" fill="#d0fefe"/>
          <ellipse id="Ellipse_6-14" data-name="Ellipse 6" cx="6" cy="6.5" rx="6" ry="6.5" transform="translate(0.321 0.155)" fill="#d0fefe"/>
        </g>
        <g id="Group_3" data-name="Group 3" transform="translate(9.543 6.817)">
          <rect id="Rectangle_1-15" data-name="Rectangle 1" width="122" height="14" transform="translate(5.137 -0.301)" fill="#d0fefe"/>
          <ellipse id="Ellipse_5-15" data-name="Ellipse 5" cx="5.5" cy="7" rx="5.5" ry="7" transform="translate(121.137 -0.301)" fill="#d0fefe"/>
          <ellipse id="Ellipse_6-15" data-name="Ellipse 6" cx="6" cy="7" rx="6" ry="7" transform="translate(0.137 -0.301)" fill="#d0fefe"/>
        </g>
        <g id="Group_4" data-name="Group 4" transform="translate(29.993 0)">
          <rect id="Rectangle_1-16" data-name="Rectangle 1" width="86" height="14" transform="translate(5.688 -0.485)" fill="#d0fefe"/>
          <ellipse id="Ellipse_5-16" data-name="Ellipse 5" cx="5.5" cy="7" rx="5.5" ry="7" transform="translate(85.688 -0.485)" fill="#d0fefe"/>
          <ellipse id="Ellipse_6-16" data-name="Ellipse 6" cx="5.5" cy="7" rx="5.5" ry="7" transform="translate(-0.312 -0.485)" fill="#d0fefe"/>
        </g>
      </g>
    </g>
    <g id="cloud_group_1" transform="translate(211.406 283.692)">
      <g id="cloud_group_1-2" data-name="cloud_group_1">
        <g id="Group_21" data-name="Group 21" transform="translate(-0.406 23.308)">
          <rect id="Rectangle_1-17" data-name="Rectangle 1" width="137" height="11" transform="translate(9 0)" fill="#d0fefe"/>
          <ellipse id="Ellipse_5-17" data-name="Ellipse 5" cx="9" cy="5.5" rx="9" ry="5.5" transform="translate(138 0)" fill="#d0fefe"/>
          <ellipse id="Ellipse_6-17" data-name="Ellipse 6" cx="8.5" cy="5.5" rx="8.5" ry="5.5" transform="translate(0 0)" fill="#d0fefe"/>
        </g>
        <g id="Group_22" data-name="Group 22" transform="translate(13.594 14.565)">
          <rect id="Rectangle_1-18" data-name="Rectangle 1" width="120" height="10" transform="translate(7 -0.257)" fill="#d0fefe"/>
          <ellipse id="Ellipse_5-18" data-name="Ellipse 5" cx="7.5" cy="5" rx="7.5" ry="5" transform="translate(120 -0.257)" fill="#d0fefe"/>
          <ellipse id="Ellipse_6-18" data-name="Ellipse 6" cx="7" cy="5" rx="7" ry="5" transform="translate(0 -0.257)" fill="#d0fefe"/>
        </g>
        <g id="Group_23" data-name="Group 23" transform="translate(26.649 7.195)">
          <rect id="Rectangle_1-19" data-name="Rectangle 1" width="83" height="9" transform="translate(4.945 0.113)" fill="#d0fefe"/>
          <ellipse id="Ellipse_5-19" data-name="Ellipse 5" cx="5.5" cy="4.5" rx="5.5" ry="4.5" transform="translate(82.945 0.113)" fill="#d0fefe"/>
          <circle id="Ellipse_6-19" data-name="Ellipse 6" cx="4.5" cy="4.5" r="4.5" transform="translate(-0.055 0.113)" fill="#d0fefe"/>
        </g>
        <g id="Group_84" data-name="Group 84" transform="translate(37.648 1.195)">
          <rect id="Rectangle_1-20" data-name="Rectangle 1" width="66" height="9" transform="translate(4.946 0.112)" fill="#d0fefe"/>
          <ellipse id="Ellipse_5-20" data-name="Ellipse 5" cx="5.5" cy="4.5" rx="5.5" ry="4.5" transform="translate(65.946 0.112)" fill="#d0fefe"/>
          <circle id="Ellipse_6-20" data-name="Ellipse 6" cx="4.5" cy="4.5" r="4.5" transform="translate(-0.054 0.112)" fill="#d0fefe"/>
        </g>
      </g>
    </g>
  </g>
</svg>
