<svg xmlns="http://www.w3.org/2000/svg" width="917" height="412" viewBox="0 0 917 412">
  <g id="clouds" transform="translate(-971 -445)">
    <g id="Group_10" data-name="Group 10" transform="translate(1148.07 437)">
      <rect id="Rectangle_1" data-name="Rectangle 1" width="161" height="12" transform="translate(443.93 366)" fill="#d0fefe"/>
      <ellipse id="Ellipse_5" data-name="Ellipse 5" cx="11" cy="6" rx="11" ry="6" transform="translate(594.93 366)" fill="#d0fefe"/>
      <ellipse id="Ellipse_6" data-name="Ellipse 6" cx="10" cy="6" rx="10" ry="6" transform="translate(432.93 366)" fill="#d0fefe"/>
    </g>
    <g id="Group_11" data-name="Group 11" transform="translate(1096.27 467)">
      <rect id="Rectangle_1-2" data-name="Rectangle 1" width="126" height="15" transform="translate(441.73 366)" fill="#d0fefe"/>
      <ellipse id="Ellipse_5-2" data-name="Ellipse 5" cx="8.5" cy="7.5" rx="8.5" ry="7.5" transform="translate(559.73 366)" fill="#d0fefe"/>
      <ellipse id="Ellipse_6-2" data-name="Ellipse 6" cx="8" cy="7.5" rx="8" ry="7.5" transform="translate(432.73 366)" fill="#d0fefe"/>
    </g>
    <g id="Group_13" data-name="Group 13" transform="translate(998 351)">
      <g id="Group_1" data-name="Group 1">
        <rect id="Rectangle_1-3" data-name="Rectangle 1" width="422" height="35" transform="translate(450 366)" fill="#d0fefe"/>
        <circle id="Ellipse_5-3" data-name="Ellipse 5" cx="17.5" cy="17.5" r="17.5" transform="translate(855 366)" fill="#d0fefe"/>
        <circle id="Ellipse_6-3" data-name="Ellipse 6" cx="17.5" cy="17.5" r="17.5" transform="translate(433 366)" fill="#d0fefe"/>
      </g>
      <g id="Group_2" data-name="Group 2" transform="translate(45.065 -17)">
        <rect id="Rectangle_1-4" data-name="Rectangle 1" width="361" height="35" transform="translate(447.935 366)" fill="#d0fefe"/>
        <ellipse id="Ellipse_5-4" data-name="Ellipse 5" cx="15" cy="17.5" rx="15" ry="17.5" transform="translate(793.935 366)" fill="#d0fefe"/>
        <ellipse id="Ellipse_6-4" data-name="Ellipse 6" cx="15" cy="17.5" rx="15" ry="17.5" transform="translate(432.935 366)" fill="#d0fefe"/>
      </g>
      <g id="Group_3" data-name="Group 3" transform="translate(27.065 -43)">
        <rect id="Rectangle_1-5" data-name="Rectangle 1" width="318" height="35" transform="translate(447.935 366)" fill="#d0fefe"/>
        <ellipse id="Ellipse_5-5" data-name="Ellipse 5" cx="15" cy="17.5" rx="15" ry="17.5" transform="translate(750.935 366)" fill="#d0fefe"/>
        <ellipse id="Ellipse_6-5" data-name="Ellipse 6" cx="15" cy="17.5" rx="15" ry="17.5" transform="translate(432.935 366)" fill="#d0fefe"/>
      </g>
      <g id="Group_4" data-name="Group 4" transform="translate(79.317 -60)">
        <rect id="Rectangle_1-6" data-name="Rectangle 1" width="227" height="35" transform="translate(447.683 366)" fill="#d0fefe"/>
        <ellipse id="Ellipse_5-6" data-name="Ellipse 5" cx="15" cy="17.5" rx="15" ry="17.5" transform="translate(659.683 366)" fill="#d0fefe"/>
        <ellipse id="Ellipse_6-6" data-name="Ellipse 6" cx="15" cy="17.5" rx="15" ry="17.5" transform="translate(432.683 366)" fill="#d0fefe"/>
      </g>
    </g>
    <g id="Group_14" data-name="Group 14" transform="translate(437 95)">
      <g id="Group_5" data-name="Group 5" transform="translate(586 568.897)">
        <rect id="Rectangle_1-7" data-name="Rectangle 1" width="322" height="41" transform="translate(21 0.103)" fill="#d0fefe"/>
        <ellipse id="Ellipse_5-7" data-name="Ellipse 5" cx="21" cy="20.5" rx="21" ry="20.5" transform="translate(322 0.103)" fill="#d0fefe"/>
        <ellipse id="Ellipse_6-7" data-name="Ellipse 6" cx="21" cy="20.5" rx="21" ry="20.5" transform="translate(0 0.103)" fill="#d0fefe"/>
      </g>
      <g id="Group_6" data-name="Group 6" transform="translate(632.817 549)">
        <rect id="Rectangle_1-8" data-name="Rectangle 1" width="247" height="41" transform="translate(16.183)" fill="#d0fefe"/>
        <ellipse id="Ellipse_5-8" data-name="Ellipse 5" cx="16.5" cy="20.5" rx="16.5" ry="20.5" transform="translate(248.183)" fill="#d0fefe"/>
        <ellipse id="Ellipse_6-8" data-name="Ellipse 6" cx="15.5" cy="20.5" rx="15.5" ry="20.5" transform="translate(0.183)" fill="#d0fefe"/>
      </g>
    </g>
    <g id="Group_12" data-name="Group 12" transform="translate(368 326)">
      <g id="Group_7" data-name="Group 7" transform="translate(707 489.087)">
        <rect id="Rectangle_1-9" data-name="Rectangle 1" width="355" height="42" transform="translate(23 -0.087)" fill="#d0fefe"/>
        <ellipse id="Ellipse_5-9" data-name="Ellipse 5" cx="24" cy="21" rx="24" ry="21" transform="translate(356 -0.087)" fill="#d0fefe"/>
        <ellipse id="Ellipse_6-9" data-name="Ellipse 6" cx="22.5" cy="21" rx="22.5" ry="21" transform="translate(0 -0.087)" fill="#d0fefe"/>
      </g>
      <g id="Group_8" data-name="Group 8" transform="translate(767.095 467.543)">
        <rect id="Rectangle_1-10" data-name="Rectangle 1" width="280" height="43" transform="translate(17.905 0.457)" fill="#d0fefe"/>
        <ellipse id="Ellipse_5-10" data-name="Ellipse 5" cx="18.5" cy="21.5" rx="18.5" ry="21.5" transform="translate(280.905 0.457)" fill="#d0fefe"/>
        <ellipse id="Ellipse_6-10" data-name="Ellipse 6" cx="17.5" cy="21.5" rx="17.5" ry="21.5" transform="translate(-0.095 0.457)" fill="#d0fefe"/>
      </g>
      <g id="Group_9" data-name="Group 9" transform="translate(797.709 446)">
        <rect id="Rectangle_1-11" data-name="Rectangle 1" width="231" height="43" transform="translate(16.291)" fill="#d0fefe"/>
        <ellipse id="Ellipse_5-11" data-name="Ellipse 5" cx="15.5" cy="21.5" rx="15.5" ry="21.5" transform="translate(232.291)" fill="#d0fefe"/>
        <ellipse id="Ellipse_6-11" data-name="Ellipse 6" cx="14.5" cy="21.5" rx="14.5" ry="21.5" transform="translate(0.291)" fill="#d0fefe"/>
      </g>
    </g>
    <g id="Group_20" data-name="Group 20" transform="translate(1101.07 223)">
      <rect id="Rectangle_1-12" data-name="Rectangle 1" width="115" height="17" transform="translate(440.93 366)" fill="#d0fefe"/>
      <ellipse id="Ellipse_5-12" data-name="Ellipse 5" cx="8" cy="8.5" rx="8" ry="8.5" transform="translate(548.93 366)" fill="#d0fefe"/>
      <ellipse id="Ellipse_6-12" data-name="Ellipse 6" cx="7" cy="8.5" rx="7" ry="8.5" transform="translate(432.93 366)" fill="#d0fefe"/>
    </g>
    <g id="Group_19" data-name="Group 19" transform="translate(424.72 137)">
      <g id="Group_15" data-name="Group 15" transform="translate(546 422.886)">
        <rect id="Rectangle_1-13" data-name="Rectangle 1" width="381" height="29" transform="translate(26.28 0.114)" fill="#d0fefe"/>
        <ellipse id="Ellipse_5-13" data-name="Ellipse 5" cx="26" cy="14.5" rx="26" ry="14.5" transform="translate(384.28 0.114)" fill="#d0fefe"/>
        <ellipse id="Ellipse_6-13" data-name="Ellipse 6" cx="23.5" cy="14.5" rx="23.5" ry="14.5" transform="translate(0.28 0.114)" fill="#d0fefe"/>
      </g>
      <g id="Group_16" data-name="Group 16" transform="translate(582.256 396.299)">
        <rect id="Rectangle_1-14" data-name="Rectangle 1" width="303" height="29" transform="translate(22.024 -0.299)" fill="#d0fefe"/>
        <ellipse id="Ellipse_5-14" data-name="Ellipse 5" cx="21" cy="14.5" rx="21" ry="14.5" transform="translate(307.024 -0.299)" fill="#d0fefe"/>
        <ellipse id="Ellipse_6-14" data-name="Ellipse 6" cx="18.5" cy="14.5" rx="18.5" ry="14.5" transform="translate(0.024 -0.299)" fill="#d0fefe"/>
      </g>
      <g id="Group_17" data-name="Group 17" transform="translate(623.346 368.502)">
        <rect id="Rectangle_1-15" data-name="Rectangle 1" width="240" height="29" transform="translate(16.934 0.498)" fill="#d0fefe"/>
        <ellipse id="Ellipse_5-15" data-name="Ellipse 5" cx="17" cy="14.5" rx="17" ry="14.5" transform="translate(242.934 0.498)" fill="#d0fefe"/>
        <circle id="Ellipse_6-15" data-name="Ellipse 6" cx="14.5" cy="14.5" r="14.5" transform="translate(-0.066 0.498)" fill="#d0fefe"/>
      </g>
      <g id="Group_18" data-name="Group 18" transform="translate(687.398 354)">
        <rect id="Rectangle_1-16" data-name="Rectangle 1" width="140" height="29" transform="translate(10.882)" fill="#d0fefe"/>
        <ellipse id="Ellipse_5-16" data-name="Ellipse 5" cx="10" cy="14.5" rx="10" ry="14.5" transform="translate(142.882)" fill="#d0fefe"/>
        <ellipse id="Ellipse_6-16" data-name="Ellipse 6" cx="8.5" cy="14.5" rx="8.5" ry="14.5" transform="translate(-0.118)" fill="#d0fefe"/>
      </g>
    </g>
    <g id="Group_25" data-name="Group 25" transform="translate(839 202)">
      <g id="Group_21" data-name="Group 21" transform="translate(642 294.335)">
        <rect id="Rectangle_1-17" data-name="Rectangle 1" width="345" height="27" transform="translate(24 -0.335)" fill="#d0fefe"/>
        <ellipse id="Ellipse_5-17" data-name="Ellipse 5" cx="23.5" cy="13.5" rx="23.5" ry="13.5" transform="translate(347 -0.335)" fill="#d0fefe"/>
        <ellipse id="Ellipse_6-17" data-name="Ellipse 6" cx="21.5" cy="13.5" rx="21.5" ry="13.5" transform="translate(0 -0.335)" fill="#d0fefe"/>
      </g>
      <g id="Group_22" data-name="Group 22" transform="translate(678.79 275.512)">
        <rect id="Rectangle_1-18" data-name="Rectangle 1" width="297" height="26" transform="translate(20.21 0.488)" fill="#d0fefe"/>
        <ellipse id="Ellipse_5-18" data-name="Ellipse 5" cx="20.5" cy="13" rx="20.5" ry="13" transform="translate(298.21 0.488)" fill="#d0fefe"/>
        <ellipse id="Ellipse_6-18" data-name="Ellipse 6" cx="18.5" cy="13" rx="18.5" ry="13" transform="translate(0.21 0.488)" fill="#d0fefe"/>
      </g>
      <g id="Group_23" data-name="Group 23" transform="translate(703.602 255.834)">
        <rect id="Rectangle_1-19" data-name="Rectangle 1" width="218" height="26" transform="translate(14.398 0.166)" fill="#d0fefe"/>
        <ellipse id="Ellipse_5-19" data-name="Ellipse 5" cx="15" cy="13" rx="15" ry="13" transform="translate(219.398 0.166)" fill="#d0fefe"/>
        <ellipse id="Ellipse_6-19" data-name="Ellipse 6" cx="13.5" cy="13" rx="13.5" ry="13" transform="translate(0.398 0.166)" fill="#d0fefe"/>
      </g>
      <g id="Group_24" data-name="Group 24" transform="translate(769.481 243)">
        <rect id="Rectangle_1-20" data-name="Rectangle 1" width="141" height="27" transform="translate(9.519)" fill="#d0fefe"/>
        <ellipse id="Ellipse_5-20" data-name="Ellipse 5" cx="9.5" cy="13.5" rx="9.5" ry="13.5" transform="translate(141.519)" fill="#d0fefe"/>
        <ellipse id="Ellipse_6-20" data-name="Ellipse 6" cx="9" cy="13.5" rx="9" ry="13.5" transform="translate(-0.481)" fill="#d0fefe"/>
      </g>
    </g>
  </g>
</svg>
